<svg xmlns="http://www.w3.org/2000/svg" xmlns:xlink="http://www.w3.org/1999/xlink" id="Camada_1" x="0px" y="0px" viewBox="0 0 480 90" style="enable-background:new 0 0 480 90;" xml:space="preserve"><g>	<g>		<path style="fill:#97C8D6;" d="M61.1,25V8.4c0-3-2.4-5.4-5.4-5.4h-17c-3,0-5.4,2.4-5.4,5.4v22.7H10.6c-3,0-5.4,2.4-5.4,5.4v17   c0,3,2.4,5.4,5.4,5.4h16.2C33.4,43.6,45.8,31.4,61.1,25z"></path>		<g>			<path style="fill-rule:evenodd;clip-rule:evenodd;fill:#1D1D1B;" d="M57.9,48.4c3.3-0.1,3.9-2.1,3.4-4.8c-0.3-1.7-1-3.2-1.7-4.7    c-1.9-3.9-2.7-3.5-1.6-4.5c2.6-2.7,2.5-7.2-1.2-9.7c-3.1-2.1-4.8-0.2-4.1,1.1c0.4,0.7,1.1,0.8,1.6,1.3c0.4,0.3,0.7,0.7,0.8,1.2    c0.1,0.5-0.2,1.6-0.8,2.3c-0.6-0.5-2.9-3.4-4.6-4.9c-0.4-0.4-0.7-0.5-1.2-0.9c-0.5-0.5-0.8-0.8-1.3-1.1c-0.8-0.6-1.7-1.3-2.5-2    c-2.2-1.7-5.4-3.6-6.5-6.2c-0.4-0.9-0.3-1.7-0.5-2.5c0.5-0.2,0-0.2,0.6-0.1c0.3,0,0.6,0.2,1.6,0.2c0.8,0,1.3,0,2.1-0.3    c3-1.1,3.3-5.3-2-6.4c-7.2-1.5-8,4.9-7.5,10.2c0.1,1.2,0.2,0.9-1,2.1c-0.7,0.7-1.4,1.3-2.1,2c-0.6,0.5-1.6,1.2-2.1,1.5    c-3.7,1.8-2.4,0-8.3-1.2c-1.2-0.3-3.1-0.4-4.2,0.3c-2.6,1.7-5.9,11-0.9,11.7c2.6,0.3,4.1-2,4.8-4.4c0.1-0.6,0.3-1.7,0.5-2.1    l0.8,0.4c1.2,0.8,1.3,1.1,2,2.2c0.6,0.8,1.3,2.3,1.4,3.2c-0.4,0.2-1.6-0.3-2.6-0.3c-1.6-0.1-4.8-0.3-4.3,2.1    c0.3,1.2,0.8,1.7,1.4,2.7c-0.2,0.5-1.3,2.8-1.7,3.1c-0.4,0.4-2.3,1-3.2,1.8c-1.4,1.2-0.8,2,0.3,3.2c3.3,3.3,14.8,9.5,18.9,9.9    c1.5,0.2,1.2,0.7,3.1,2.4c2,1.8,4.5,2.9,6.1,0.2c1.4-2.3,1.5-5.8,2.3-6.1c1.3-0.5,1.4-0.2,3.2-1.2c1.4-0.8,2-1.7,3.3-2.8l4.1,0.9    C55.5,48.1,56.6,48.5,57.9,48.4z"></path>			<path style="fill-rule:evenodd;clip-rule:evenodd;fill:#56A6B1;" d="M13,42.4c1.4,3.7,17.2,11.6,19.4,11.1    c-0.1-0.4-1.7-2.7-2-3.3c-1.2-2.1-2.5-4.6-3.4-6.7c-0.4-1-1-2.4-1.2-3.4l-1.8-6.8c-0.3-0.6-1-0.6-1.5-0.8    c-0.2-0.1-0.5-0.1-0.8-0.2c-1.4-0.2-3.3-0.5-4.4,0.6c0.2,1.2,0.5,1.6,1.2,2.7c0.6,0.9,0.3,0.9-0.7,2.8c-0.7,1.3-0.4,1.5-1.9,2.2    C14.8,41,13.9,41.5,13,42.4z"></path>			<path style="fill-rule:evenodd;clip-rule:evenodd;fill:#1D1D1B;" d="M20.4,41.8c0.2-0.4,0.9-0.5,1.5-0.2c0.6,0.3,1,0.9,0.8,1.3    c-0.2,0.4-0.9,0.5-1.5,0.2C20.5,42.7,20.2,42.2,20.4,41.8z"></path>			<path style="fill-rule:evenodd;clip-rule:evenodd;fill:#FFFFFF;" d="M20.7,42.2c0.1-0.1,0.3-0.1,0.4-0.1c0.2,0.1,0.3,0.3,0.2,0.4    c-0.1,0.1-0.3,0.1-0.4,0.1C20.7,42.5,20.6,42.3,20.7,42.2z"></path>			<path style="fill-rule:evenodd;clip-rule:evenodd;fill:#1D1D1B;" d="M22,38.4c0.2-0.4,0.9-0.5,1.5-0.2c0.6,0.3,1,0.9,0.8,1.3    c-0.2,0.4-0.9,0.5-1.5,0.2C22.2,39.4,21.8,38.8,22,38.4z"></path>			<path style="fill-rule:evenodd;clip-rule:evenodd;fill:#FFFFFF;" d="M22.3,38.8c0.1-0.1,0.3-0.1,0.4-0.1c0.2,0.1,0.3,0.3,0.2,0.4    c-0.1,0.1-0.3,0.1-0.4,0.1C22.4,39.1,22.3,38.9,22.3,38.8z"></path>			<path style="fill-rule:evenodd;clip-rule:evenodd;fill:#1D1D1B;" d="M23.9,42.3c-0.2,0.1-0.4,0.1-0.5,0c-0.1-0.1-0.2-0.2-0.1-0.5    l0.4-0.9c0.2-0.3,0.3-0.3,0.4-0.3c0.1,0,0.2,0.1,0.3,0.4l0.1,0.3c0.1,0.3,0.1,0.3-0.2,0.5L23.9,42.3z"></path>			<path style="fill-rule:evenodd;clip-rule:evenodd;fill:#FFFFFF;" d="M16.3,30.9c0.9-0.9,1.4-2.6,1.7-3.6c0.1-0.7,0.2-1.3,0.3-1.8    l0-1.3c0-0.5-0.1-0.1,0.1-0.6c0.7,0.7,0.6,1,1.5,1.6c4.3,2.7,4.8,7.6,6,11.7c0.9,3.1,2,7.2,3.8,10c0.9,1.5,1.5,2.8,2.9,5    c1.1,1.8,3,4.1,4.9,5.3c1.4,0.9,2,0.8,3-0.2c0.2-0.2,0.4-0.4,0.5-0.6c0,0,0-0.1,0-0.1l0.1-0.3c0.1-0.2,0.1-0.2,0.1-0.4    c0.5-1.2,0.7-2.3,1-3.1l0.4-1.5c0,0,0-0.1,0-0.1c0,0,0-0.1,0-0.1l0-0.2c0.5-0.3,1.2-0.4,1.7-0.6c2.4-0.9,5.1-2.9,6.6-5    c0.2-0.2,0.4-0.5,0.6-0.7c0.1-0.1,0.2-0.3,0.3-0.3c0,0,0.1,0,0.1-0.1l0.2-0.1c0,0,0.1,0,0.1,0c-0.1,0.4-0.9,1.4-1.1,2.1l4.5,1.2    c0.2,0,0.2,0.1,0.4,0.1c0.9,0.1,2.5,0.5,3.4,0c2-1.1,1.2-3.5,0.7-5.1c-0.9-2.5-2.1-4.5-3.4-6.8c-2.1-3.9-5-6.8-8.1-9.7    c-1.3-1.2-4.5-3.8-5.9-4.7c-2.5-1.7-5.1-3.8-5.5-6.8c-0.1-0.5-0.1-1.2-0.1-1.8c0-1.1-0.8-0.8-0.9-1.7c0.5,0.2,2.1,1.5,4.7,1.3    c1.5-0.1,3.8-1.6,1.9-3.6C40.9,6.7,36,5.9,34.3,9c-1.1,2-1,6.3-0.6,8.5c-1.8,2.1-4.4,4.5-6.9,5.6c-0.7,0.3-1.6,0.7-2.4,0.5    c-1-0.4-1.3-0.7-3.5-1.4c-1.7-0.5-4.5-1.5-6-0.1c-1.4,1.4-4,7.4-1.8,9.2C14,32,15.5,31.7,16.3,30.9z"></path>			<path style="fill-rule:evenodd;clip-rule:evenodd;fill:#56A6B1;" d="M38,29.7c0.8-0.5,2-0.6,2.8-1c0.5-0.3,0.5,0,1,0.2    c1.2-0.9,2.5-3.7,1.1-5.5c-1.8-2.3-6.4-2.4-7.5-1.2c-0.9,1,0.1,4,0.6,5.1C36.5,28.5,36.9,29,38,29.7z"></path>			<path style="fill-rule:evenodd;clip-rule:evenodd;fill:#FFFFFF;" d="M54.8,31.5c0.7,0.8,1.5,2,2.2,2.5c3.2-2.8,1.9-7.5-1.1-9    c-2-1-3.3,0-1.7,0.8c0.4,0.2,0.8,0.5,1.2,0.9c0.7,0.8,0.7,1.6,0.6,2.4C55.8,30.2,55,30.6,54.8,31.5z"></path>			<path style="fill-rule:evenodd;clip-rule:evenodd;fill:#1D1D1B;" d="M40.5,28.6c-0.8,0.3-1.8,0.6-2.4,1c-1.9,0.9-7.5,4.4-7.6,5.7    c0.3,1.2,2,0.6,2.8,0.3c0.5-0.2,1-0.4,1.5-0.7c1-0.4,3.8-2.3,4.6-3c1.5-1.3,2.2-2.1,2.5-2.9l0.1-0.2    C41.5,28.3,41.1,28.4,40.5,28.6z"></path>			<path style="fill-rule:evenodd;clip-rule:evenodd;fill:#1D1D1B;" d="M28.7,30.7c0.5-0.4,1.3-0.2,1.9,0.5c0.5,0.7,0.6,1.5,0.1,1.9    c-0.5,0.4-1.3,0.2-1.9-0.5C28.3,31.9,28.2,31.1,28.7,30.7z"></path>			<path style="fill-rule:evenodd;clip-rule:evenodd;fill:#FFFFFF;" d="M28.8,31.2c0.2-0.1,0.5-0.1,0.6,0.2c0.2,0.2,0.2,0.5,0,0.7    c-0.2,0.1-0.5,0.1-0.6-0.2C28.7,31.6,28.7,31.3,28.8,31.2z"></path>			<path style="fill-rule:evenodd;clip-rule:evenodd;fill:#1D1D1B;" d="M37.6,25c0.5-0.4,1.3-0.2,1.9,0.5c0.5,0.7,0.6,1.5,0.1,1.9    c-0.5,0.4-1.3,0.2-1.9-0.5C37.2,26.3,37.1,25.4,37.6,25z"></path>			<path style="fill-rule:evenodd;clip-rule:evenodd;fill:#FFFFFF;" d="M37.7,25.5c0.2-0.1,0.5-0.1,0.6,0.2c0.2,0.2,0.2,0.5,0,0.7    c-0.2,0.1-0.5,0.1-0.6-0.2C37.6,25.9,37.6,25.6,37.7,25.5z"></path>			<path style="fill-rule:evenodd;clip-rule:evenodd;fill:#1D1D1B;" d="M27.8,28.2c-0.6,1-0.9,2-1,2.9    C26.4,29.9,26.7,28.9,27.8,28.2z"></path>			<path style="fill-rule:evenodd;clip-rule:evenodd;fill:#1D1D1B;" d="M36.5,23.8c1.2-0.2,2.2-0.1,3.1,0.2    C38.5,23.1,37.5,23,36.5,23.8z"></path>			<path style="fill-rule:evenodd;clip-rule:evenodd;fill:#1D1D1B;" d="M44.7,30.1c-1.3,2.9-3.4,5.2-5.8,6.7l-1.9-2.4l1.4,2.8    c-2.8,1.7-6.1,2.3-9.1,1.7C35.2,41.1,43.3,35.9,44.7,30.1z"></path>		</g>		<path style="fill:#56A6B1;" d="M33.3,64v17.6c0,3,2.4,5.4,5.4,5.4h17c3,0,5.4-2.4,5.4-5.4V58.9h22.7c3,0,5.4-2.4,5.4-5.4v-17   c0-3-2.4-5.4-5.4-5.4H67.3C51.7,36.5,39.2,48.7,33.3,64z"></path>	</g>	<g>		<g>			<path style="fill:#1D1D1B;" d="M107.1,34.5h13c3.4,0,6.4,0.7,9,2c2.6,1.4,4.6,3.2,6,5.7c1.4,2.4,2.2,5.2,2.2,8.3    c0,3.1-0.7,5.9-2.2,8.3c-1.4,2.4-3.4,4.3-6,5.7c-2.6,1.4-5.6,2-9,2h-13V34.5z M120,63.6c2.8,0,5.3-0.6,7.4-1.7    c2.1-1.1,3.7-2.7,4.9-4.6c1.2-2,1.7-4.2,1.7-6.8c0-2.6-0.6-4.8-1.7-6.8c-1.2-2-2.8-3.5-4.9-4.6c-2.1-1.1-4.6-1.7-7.4-1.7h-9.5    v26.2H120z"></path>			<path style="fill:#1D1D1B;" d="M146.4,65.2c-1.9-1.1-3.3-2.5-4.4-4.4c-1.1-1.9-1.6-4-1.6-6.3c0-2.3,0.5-4.5,1.6-6.3    c1.1-1.9,2.5-3.3,4.4-4.3c1.9-1,4-1.6,6.3-1.6c2.3,0,4.4,0.5,6.3,1.6c1.9,1,3.3,2.5,4.4,4.3c1.1,1.9,1.6,4,1.6,6.3    c0,2.4-0.5,4.5-1.6,6.3c-1.1,1.9-2.5,3.3-4.4,4.4c-1.9,1.1-4,1.6-6.3,1.6C150.4,66.8,148.3,66.2,146.4,65.2z M157.3,62.7    c1.4-0.8,2.4-1.9,3.2-3.3c0.8-1.4,1.1-3.1,1.1-4.9c0-1.8-0.4-3.5-1.1-4.9c-0.8-1.4-1.8-2.5-3.2-3.3c-1.4-0.8-2.9-1.2-4.6-1.2    c-1.7,0-3.2,0.4-4.6,1.2c-1.4,0.8-2.4,1.9-3.2,3.3c-0.8,1.4-1.2,3.1-1.2,4.9c0,1.8,0.4,3.5,1.2,4.9c0.8,1.4,1.8,2.5,3.2,3.3    c1.4,0.8,2.9,1.2,4.6,1.2C154.4,63.9,156,63.5,157.3,62.7z"></path>			<path style="fill:#1D1D1B;" d="M173.8,65.2c-1.9-1-3.3-2.5-4.4-4.4c-1.1-1.9-1.6-4-1.6-6.3c0-2.3,0.5-4.5,1.6-6.3    c1.1-1.9,2.5-3.3,4.4-4.3c1.9-1,4-1.6,6.4-1.6c2.1,0,3.9,0.4,5.6,1.2c1.6,0.8,2.9,2,3.9,3.5l-2.4,1.6c-0.8-1.2-1.8-2.1-3-2.7    c-1.2-0.6-2.5-0.9-4-0.9c-1.7,0-3.3,0.4-4.7,1.2c-1.4,0.8-2.5,1.9-3.2,3.3c-0.8,1.4-1.2,3.1-1.2,4.9c0,1.9,0.4,3.5,1.2,4.9    c0.8,1.4,1.9,2.5,3.2,3.3c1.4,0.8,3,1.2,4.7,1.2c1.4,0,2.8-0.3,4-0.9c1.2-0.6,2.2-1.5,3-2.7l2.4,1.6c-0.9,1.6-2.2,2.7-3.9,3.5    c-1.6,0.8-3.5,1.2-5.5,1.2C177.8,66.8,175.7,66.2,173.8,65.2z"></path>			<path style="fill:#1D1D1B;" d="M207.6,65.1c-0.6,0.5-1.4,1-2.3,1.3c-0.9,0.3-1.8,0.4-2.8,0.4c-2.3,0-4-0.6-5.2-1.8    c-1.2-1.2-1.8-2.9-1.8-5.2V45.2h-4.3v-2.7h4.3v-5.3h3.2v5.3h7.3v2.7h-7.3v14.4c0,1.4,0.4,2.5,1.1,3.3c0.7,0.7,1.7,1.1,3.1,1.1    c0.7,0,1.3-0.1,1.9-0.3c0.6-0.2,1.2-0.5,1.6-0.9L207.6,65.1z"></path>			<path style="fill:#1D1D1B;" d="M214.8,65.2c-1.9-1.1-3.3-2.5-4.4-4.4c-1.1-1.9-1.6-4-1.6-6.3c0-2.3,0.5-4.5,1.6-6.3    c1.1-1.9,2.5-3.3,4.4-4.3c1.9-1,4-1.6,6.3-1.6c2.3,0,4.4,0.5,6.3,1.6c1.9,1,3.3,2.5,4.4,4.3c1.1,1.9,1.6,4,1.6,6.3    c0,2.4-0.5,4.5-1.6,6.3c-1.1,1.9-2.5,3.3-4.4,4.4c-1.9,1.1-4,1.6-6.3,1.6C218.7,66.8,216.6,66.2,214.8,65.2z M225.7,62.7    c1.4-0.8,2.4-1.9,3.2-3.3c0.8-1.4,1.1-3.1,1.1-4.9c0-1.8-0.4-3.5-1.1-4.9c-0.8-1.4-1.8-2.5-3.2-3.3c-1.4-0.8-2.9-1.2-4.6-1.2    c-1.7,0-3.2,0.4-4.6,1.2c-1.4,0.8-2.4,1.9-3.2,3.3c-0.8,1.4-1.2,3.1-1.2,4.9c0,1.8,0.4,3.5,1.2,4.9c0.8,1.4,1.8,2.5,3.2,3.3    c1.4,0.8,2.9,1.2,4.6,1.2C222.8,63.9,224.3,63.5,225.7,62.7z"></path>			<path style="fill:#1D1D1B;" d="M245.1,43.5c1.5-0.8,3.4-1.2,5.6-1.2v3.2l-0.8,0c-2.5,0-4.5,0.8-6,2.3c-1.4,1.6-2.2,3.7-2.2,6.5    v12.3h-3.3V42.5h3.1v4.7C242.4,45.6,243.6,44.3,245.1,43.5z"></path>		</g>	</g>	<g>		<path style="fill:#56A6B1;" d="M285.2,34.5l-14,32h-5.9l-14-32h6.5l10.7,24.7l10.8-24.7H285.2z"></path>		<path style="fill:#56A6B1;" d="M307.8,56.1h-19.2c0.3,1.8,1.2,3.2,2.6,4.3c1.4,1.1,3.2,1.6,5.3,1.6c2.7,0,4.9-0.9,6.6-2.7l3.1,3.5   c-1.1,1.3-2.5,2.3-4.2,3c-1.7,0.7-3.6,1-5.7,1c-2.7,0-5.1-0.5-7.1-1.6c-2-1.1-3.6-2.6-4.7-4.5c-1.1-1.9-1.7-4.1-1.7-6.5   c0-2.4,0.5-4.5,1.6-6.4c1.1-1.9,2.6-3.4,4.5-4.5c1.9-1.1,4.1-1.6,6.5-1.6c2.4,0,4.5,0.5,6.4,1.6c1.9,1.1,3.3,2.5,4.4,4.4   c1.1,1.9,1.6,4.1,1.6,6.6C307.9,54.8,307.8,55.4,307.8,56.1z M290.8,48c-1.3,1.1-2,2.5-2.3,4.3h13.9c-0.2-1.8-1-3.2-2.2-4.3   c-1.3-1.1-2.8-1.6-4.7-1.6C293.7,46.4,292.1,46.9,290.8,48z"></path>		<path style="fill:#56A6B1;" d="M326.7,65.2c-0.7,0.5-1.5,1-2.4,1.2c-1,0.3-2,0.4-3,0.4c-2.7,0-4.8-0.7-6.2-2.1   c-1.5-1.4-2.2-3.4-2.2-6.1V46.9h-4v-4.6h4v-5.6h5.7v5.6h6.5v4.6h-6.5v11.6c0,1.2,0.3,2.1,0.9,2.7c0.6,0.6,1.4,0.9,2.5,0.9   c1.3,0,2.3-0.3,3.2-1L326.7,65.2z"></path>	</g>	<g>		<g>			<path style="fill:#56A6B1;" d="M114.9,16.6v10.1h-1.4v-4.5h-5.8v4.5h-1.4V16.6h1.4v4.3h5.8v-4.3H114.9z"></path>			<path style="fill:#56A6B1;" d="M121.9,26.1c-0.8-0.4-1.5-1.1-1.9-1.9c-0.5-0.8-0.7-1.7-0.7-2.6c0-1,0.2-1.8,0.7-2.6    c0.5-0.8,1.1-1.4,1.9-1.9c0.8-0.4,1.7-0.7,2.8-0.7c1,0,1.9,0.2,2.7,0.7c0.8,0.4,1.5,1.1,1.9,1.8c0.5,0.8,0.7,1.7,0.7,2.6    c0,1-0.2,1.9-0.7,2.6c-0.5,0.8-1.1,1.4-1.9,1.8c-0.8,0.4-1.7,0.7-2.7,0.7C123.6,26.8,122.7,26.6,121.9,26.1z M126.6,25    c0.6-0.3,1.1-0.8,1.4-1.4c0.3-0.6,0.5-1.3,0.5-2c0-0.7-0.2-1.4-0.5-2c-0.3-0.6-0.8-1.1-1.4-1.4c-0.6-0.3-1.3-0.5-2-0.5    c-0.7,0-1.4,0.2-2,0.5c-0.6,0.3-1.1,0.8-1.4,1.4c-0.3,0.6-0.5,1.3-0.5,2c0,0.7,0.2,1.4,0.5,2c0.3,0.6,0.8,1.1,1.4,1.4    c0.6,0.3,1.3,0.5,2,0.5C125.4,25.5,126.1,25.4,126.6,25z"></path>			<path style="fill:#56A6B1;" d="M135.1,26.5c-0.7-0.2-1.3-0.5-1.7-0.9l0.5-1.1c0.4,0.3,0.9,0.6,1.5,0.8c0.6,0.2,1.2,0.3,1.9,0.3    c0.8,0,1.5-0.1,1.9-0.4c0.4-0.3,0.6-0.7,0.6-1.1c0-0.3-0.1-0.6-0.3-0.8c-0.2-0.2-0.5-0.4-0.8-0.5c-0.3-0.1-0.8-0.2-1.4-0.4    c-0.8-0.2-1.4-0.4-1.8-0.5c-0.5-0.2-0.9-0.5-1.2-0.8c-0.3-0.4-0.5-0.9-0.5-1.5c0-0.5,0.1-1,0.4-1.5c0.3-0.4,0.7-0.8,1.3-1    c0.6-0.3,1.3-0.4,2.1-0.4c0.6,0,1.2,0.1,1.8,0.2c0.6,0.2,1.1,0.4,1.5,0.7l-0.5,1.2c-0.4-0.3-0.9-0.5-1.4-0.6    c-0.5-0.1-1-0.2-1.4-0.2c-0.8,0-1.4,0.1-1.8,0.4c-0.4,0.3-0.6,0.7-0.6,1.2c0,0.3,0.1,0.6,0.3,0.8c0.2,0.2,0.5,0.4,0.9,0.5    c0.3,0.1,0.8,0.2,1.4,0.4c0.8,0.2,1.4,0.4,1.8,0.5c0.5,0.2,0.9,0.5,1.2,0.8s0.5,0.9,0.5,1.5c0,0.5-0.1,1-0.4,1.4    c-0.3,0.4-0.7,0.8-1.3,1c-0.6,0.3-1.3,0.4-2.2,0.4C136.5,26.8,135.8,26.7,135.1,26.5z"></path>			<path style="fill:#56A6B1;" d="M152.5,17.6c0.7,0.6,1.1,1.5,1.1,2.6c0,1.1-0.4,2-1.1,2.6s-1.8,0.9-3.1,0.9h-2.5v3.1h-1.4V16.6    h3.9C150.7,16.6,151.7,16.9,152.5,17.6z M151.4,21.8c0.5-0.4,0.7-0.9,0.7-1.7c0-0.7-0.2-1.3-0.7-1.7c-0.5-0.4-1.2-0.6-2.1-0.6    h-2.4v4.5h2.4C150.3,22.4,151,22.2,151.4,21.8z"></path>			<path style="fill:#56A6B1;" d="M157.9,16.6h1.4v10.1h-1.4V16.6z"></path>			<path style="fill:#56A6B1;" d="M166.5,17.9H163v-1.3h8.3v1.3h-3.5v8.8h-1.4V17.9z"></path>			<path style="fill:#56A6B1;" d="M181,24.2h-5.4l-1.1,2.5h-1.5l4.6-10.1h1.4l4.6,10.1h-1.5L181,24.2z M180.5,23l-2.2-4.9l-2.2,4.9    H180.5z"></path>			<path style="fill:#56A6B1;" d="M187.3,16.6h1.4v8.8h5.5v1.3h-6.9V16.6z"></path>			<path style="fill:#56A6B1;" d="M212.8,16.6l-4.4,10.1H207l-4.4-10.1h1.6l3.6,8.3l3.7-8.3H212.8z"></path>			<path style="fill:#56A6B1;" d="M223.6,25.4v1.3h-7.3V16.6h7.1v1.3h-5.7V21h5.1v1.2h-5.1v3.3H223.6z"></path>			<path style="fill:#56A6B1;" d="M230.1,17.9h-3.5v-1.3h8.3v1.3h-3.5v8.8h-1.4V17.9z"></path>			<path style="fill:#56A6B1;" d="M246,25.4v1.3h-7.3V16.6h7.1v1.3h-5.7V21h5.1v1.2h-5.1v3.3H246z"></path>			<path style="fill:#56A6B1;" d="M257.2,26.7l-2.2-3.1c-0.3,0-0.5,0-0.6,0h-2.5v3.1h-1.4V16.6h3.9c1.3,0,2.3,0.3,3.1,0.9    s1.1,1.5,1.1,2.6c0,0.8-0.2,1.4-0.6,2s-0.9,0.9-1.6,1.2l2.4,3.4H257.2z M256.5,21.8c0.5-0.4,0.7-1,0.7-1.7c0-0.7-0.2-1.3-0.7-1.7    c-0.5-0.4-1.2-0.6-2.1-0.6h-2.4v4.5h2.4C255.3,22.4,256,22.2,256.5,21.8z"></path>			<path style="fill:#56A6B1;" d="M263.1,16.6h1.4v10.1h-1.4V16.6z"></path>			<path style="fill:#56A6B1;" d="M278.4,16.6v10.1h-1.2l-6-7.5v7.5h-1.4V16.6h1.2l6,7.5v-7.5H278.4z"></path>			<path style="fill:#56A6B1;" d="M290,24.2h-5.4l-1.1,2.5h-1.5l4.6-10.1h1.4l4.6,10.1h-1.5L290,24.2z M289.5,23l-2.2-4.9l-2.2,4.9    H289.5z M288.2,13.9h1.8l-2.4,1.9h-1.3L288.2,13.9z"></path>			<path style="fill:#56A6B1;" d="M303,26.7l-2.2-3.1c-0.3,0-0.5,0-0.6,0h-2.5v3.1h-1.4V16.6h3.9c1.3,0,2.3,0.3,3.1,0.9    s1.1,1.5,1.1,2.6c0,0.8-0.2,1.4-0.6,2c-0.4,0.5-0.9,0.9-1.6,1.2l2.4,3.4H303z M302.3,21.8c0.5-0.4,0.7-1,0.7-1.7    c0-0.7-0.2-1.3-0.7-1.7c-0.5-0.4-1.2-0.6-2.1-0.6h-2.4v4.5h2.4C301.1,22.4,301.8,22.2,302.3,21.8z"></path>			<path style="fill:#56A6B1;" d="M308.9,16.6h1.4v10.1h-1.4V16.6z"></path>			<path style="fill:#56A6B1;" d="M317.4,26.1c-0.8-0.4-1.5-1.1-1.9-1.9c-0.5-0.8-0.7-1.7-0.7-2.6c0-1,0.2-1.8,0.7-2.6    c0.5-0.8,1.1-1.4,1.9-1.9c0.8-0.4,1.7-0.7,2.8-0.7c1,0,1.9,0.2,2.7,0.7c0.8,0.4,1.5,1.1,1.9,1.8c0.5,0.8,0.7,1.7,0.7,2.6    c0,1-0.2,1.9-0.7,2.6c-0.5,0.8-1.1,1.4-1.9,1.8c-0.8,0.4-1.7,0.7-2.7,0.7C319.1,26.8,318.2,26.6,317.4,26.1z M322.1,25    c0.6-0.3,1.1-0.8,1.4-1.4c0.3-0.6,0.5-1.3,0.5-2c0-0.7-0.2-1.4-0.5-2c-0.3-0.6-0.8-1.1-1.4-1.4c-0.6-0.3-1.3-0.5-2-0.5    c-0.7,0-1.4,0.2-2,0.5c-0.6,0.3-1.1,0.8-1.4,1.4c-0.3,0.6-0.5,1.3-0.5,2c0,0.7,0.2,1.4,0.5,2c0.3,0.6,0.8,1.1,1.4,1.4    c0.6,0.3,1.3,0.5,2,0.5C320.8,25.5,321.5,25.4,322.1,25z"></path>		</g>	</g>	<g>		<path style="fill:#E20613;" d="M389.3,58.8v8.5h-34v-6.8l17.4-16.4c1.8-1.8,3.1-3.3,3.7-4.5c0.6-1.3,1-2.5,1-3.8   c0-1.8-0.6-3.2-1.8-4.1c-1.2-1-3-1.4-5.4-1.4c-2,0-3.8,0.4-5.3,1.1c-1.6,0.8-2.9,1.9-4,3.4l-7.6-4.9c1.8-2.6,4.2-4.7,7.3-6.1   c3.1-1.5,6.6-2.2,10.6-2.2c3.3,0,6.3,0.5,8.8,1.6c2.5,1.1,4.5,2.6,5.9,4.6c1.4,2,2.1,4.3,2.1,7c0,2.4-0.5,4.7-1.5,6.9   c-1,2.1-3,4.6-6,7.3L370,58.8H389.3z"></path>		<path style="fill:#E20613;" d="M434.2,57.9h-7.3v9.5h-10.2v-9.5h-24.2v-7l21.2-28.5h10.9L405,49.4H417v-8.4h9.8v8.4h7.3V57.9z"></path>		<path style="fill:#E20613;" d="M470.8,36.1c2.6,2.6,4,6.4,4,11.4v19.8h-10V49c0-2.7-0.6-4.8-1.8-6.1c-1.2-1.4-2.9-2-5.2-2   c-2.5,0-4.5,0.8-6,2.3c-1.5,1.6-2.3,3.9-2.3,7v17.1h-10V19.6h10v16.7c1.3-1.3,2.9-2.3,4.8-3.1c1.9-0.7,3.9-1.1,6.2-1.1   C464.7,32.2,468.2,33.5,470.8,36.1z"></path>	</g></g></svg>