<?xml version="1.0" standalone="no"?>
<!DOCTYPE svg PUBLIC "-//W3C//DTD SVG 20010904//EN"
 "http://www.w3.org/TR/2001/REC-SVG-20010904/DTD/svg10.dtd">
<svg version="1.0" xmlns="http://www.w3.org/2000/svg"
 width="500.000000pt" height="500.000000pt" viewBox="0 0 500.000000 500.000000"
 preserveAspectRatio="xMidYMid meet">
<metadata>
Created by potrace 1.14, written by Peter Selinger 2001-2017
</metadata>
<g transform="translate(0.000000,500.000000) scale(0.100000,-0.100000)"
fill="#000000" stroke="none">
<path d="M2289 3826 c-2 -2 -33 -6 -69 -9 -76 -7 -122 -19 -205 -54 -175 -74
-326 -247 -356 -408 -18 -96 -7 -267 23 -353 28 -83 33 -80 -70 -37 -68 28
-73 30 -172 46 -121 19 -261 -11 -365 -80 -64 -41 -146 -119 -170 -161 -47
-81 -88 -181 -100 -243 -7 -40 -14 -73 -14 -74 -1 -2 -1 -45 -1 -97 l0 -93
-97 -3 c-54 -1 -118 -4 -143 -5 -25 -1 -66 -3 -92 -4 -68 -1 -60 -18 10 -20
31 -1 75 -4 97 -6 22 -1 108 -6 190 -9 83 -4 193 -9 245 -11 776 -36 2734 -42
3390 -9 36 1 77 3 93 3 46 1 30 18 -20 20 -27 1 -66 4 -88 5 -42 4 -310 18
-405 21 -30 1 -54 6 -52 11 1 5 14 43 28 84 23 66 26 86 21 170 -9 187 -85
341 -238 484 -146 136 -290 187 -463 164 -67 -9 -209 -67 -274 -111 -24 -16
-46 -27 -48 -24 -3 3 0 24 6 47 14 50 18 216 8 280 -11 65 -81 198 -140 264
-100 113 -244 186 -403 205 -97 12 -119 13 -126 7z m191 -120 c170 -44 319
-181 370 -339 15 -48 19 -176 8 -237 -5 -25 -10 -55 -13 -68 -12 -68 -53 -163
-103 -242 -19 -30 -35 -56 -36 -57 -1 -1 -40 14 -87 35 -80 35 -89 37 -209 39
-165 3 -248 -19 -369 -101 -29 -20 -55 -36 -58 -36 -6 0 -52 55 -94 114 -49
69 -92 157 -118 240 -35 112 -27 315 15 366 6 8 15 25 18 37 10 31 126 146
180 178 62 36 178 76 246 85 77 9 181 4 250 -14z m960 -655 c80 -17 152 -62
245 -155 88 -87 141 -176 170 -286 31 -117 11 -254 -48 -325 l-28 -35 -177 6
c-245 9 -306 10 -469 12 -142 2 -143 2 -143 25 0 37 -39 165 -66 220 -22 42
-79 124 -104 147 -32 31 -32 39 4 93 73 109 206 215 341 270 112 46 164 51
275 28z m-1915 -161 c133 -41 236 -114 338 -237 l35 -42 -44 -88 c-26 -51 -51
-119 -60 -163 -8 -41 -16 -75 -17 -76 -3 -3 -816 -17 -851 -15 -17 1 -32 4
-35 7 -8 8 -2 155 10 219 20 113 83 229 164 304 49 45 168 106 220 113 65 9
173 -1 240 -22z m1028 -175 c149 -52 259 -148 321 -278 19 -40 38 -93 41 -119
l7 -48 -383 4 c-211 2 -450 5 -532 5 -147 1 -147 1 -143 24 30 158 143 307
290 381 131 67 266 77 399 31z"/>
</g>
</svg>
